<svg width="430" height="932" viewBox="0 0 430 932" fill="none" xmlns="http://www.w3.org/2000/svg">
<g clip-path="url(#clip0_1029_325)">
<rect width="430" height="932" rx="40" fill="url(#paint0_linear_1029_325)"/>
<path d="M56.0166 23.7231C56.6585 23.7231 57.2673 23.8421 57.8428 24.0801C58.4183 24.3125 58.9274 24.6777 59.3701 25.1758C59.8184 25.6683 60.1698 26.3019 60.4243 27.0767C60.6789 27.8459 60.8062 28.7728 60.8062 29.8574V29.874C60.8062 31.2188 60.6125 32.3698 60.2251 33.3271C59.8377 34.2845 59.2816 35.0205 58.5566 35.5352C57.8372 36.0443 56.9767 36.2988 55.9751 36.2988C55.2391 36.2988 54.575 36.166 53.9829 35.9004C53.3963 35.6292 52.9093 35.2585 52.522 34.7881C52.1401 34.3122 51.8828 33.7699 51.75 33.1611L51.7334 33.0698H53.8335L53.8667 33.1528C53.9718 33.4295 54.1213 33.673 54.3149 33.8833C54.5142 34.0936 54.7521 34.2568 55.0288 34.373C55.311 34.4837 55.6265 34.5391 55.9751 34.5391C56.606 34.5391 57.1206 34.3537 57.519 33.9829C57.923 33.6066 58.2246 33.1058 58.4238 32.4805C58.6286 31.8496 58.7448 31.1523 58.7725 30.3887C58.778 30.3057 58.7808 30.2254 58.7808 30.1479C58.7808 30.0649 58.7808 29.9847 58.7808 29.9072L58.4072 27.9067C58.4072 27.453 58.3021 27.0407 58.0918 26.6699C57.8815 26.2992 57.5965 26.0059 57.2368 25.79C56.8826 25.5742 56.4814 25.4663 56.0332 25.4663C55.6016 25.4663 55.2059 25.5715 54.8462 25.7817C54.4865 25.992 54.1987 26.2798 53.9829 26.645C53.7671 27.0047 53.6592 27.4087 53.6592 27.8569V27.8735C53.6592 28.3384 53.7616 28.7507 53.9663 29.1104C54.1711 29.4645 54.4505 29.744 54.8047 29.9487C55.1589 30.1535 55.5628 30.2559 56.0166 30.2559C56.4704 30.2559 56.8771 30.1562 57.2368 29.957C57.5965 29.7578 57.8815 29.4811 58.0918 29.127C58.3021 28.7728 58.4072 28.3716 58.4072 27.9233V27.9067H58.9053V30.1147H58.6147C58.4709 30.4302 58.2578 30.7235 57.9756 30.9946C57.6934 31.2658 57.3447 31.4844 56.9297 31.6504C56.5202 31.8164 56.0387 31.8994 55.4854 31.8994C54.7217 31.8994 54.0465 31.7279 53.46 31.3848C52.8734 31.0417 52.4113 30.5713 52.0737 29.9736C51.7417 29.376 51.5757 28.7008 51.5757 27.9482V27.9316C51.5757 27.1182 51.7638 26.396 52.1401 25.7651C52.522 25.1287 53.0477 24.6307 53.7173 24.271C54.3924 23.9058 55.1589 23.7231 56.0166 23.7231ZM64.0747 34.3896C63.6984 34.3896 63.383 34.2651 63.1284 34.0161C62.8794 33.7616 62.7549 33.4517 62.7549 33.0864C62.7549 32.7157 62.8794 32.4058 63.1284 32.1567C63.383 31.9022 63.6984 31.7749 64.0747 31.7749C64.4565 31.7749 64.772 31.9022 65.021 32.1567C65.27 32.4058 65.3945 32.7157 65.3945 33.0864C65.3945 33.4517 65.27 33.7616 65.021 34.0161C64.772 34.2651 64.4565 34.3896 64.0747 34.3896ZM64.0747 28.2305C63.6984 28.2305 63.383 28.106 63.1284 27.8569C62.8794 27.6024 62.7549 27.2925 62.7549 26.9272C62.7549 26.5565 62.8794 26.2466 63.1284 25.9976C63.383 25.743 63.6984 25.6157 64.0747 25.6157C64.4565 25.6157 64.772 25.743 65.021 25.9976C65.27 26.2466 65.3945 26.5565 65.3945 26.9272C65.3945 27.2925 65.27 27.6024 65.021 27.8569C64.772 28.106 64.4565 28.2305 64.0747 28.2305ZM73.1538 36V33.7007H67.2935V31.9492C67.6089 31.4124 67.9243 30.8729 68.2397 30.3306C68.5607 29.7882 68.8844 29.2487 69.2109 28.7119C69.543 28.1696 69.8722 27.6356 70.1987 27.1099C70.5308 26.5786 70.86 26.0557 71.1865 25.541C71.5186 25.0208 71.8506 24.5145 72.1826 24.022H75.1958V31.9326H76.8145V33.7007H75.1958V36H73.1538ZM69.2856 31.9824H73.187V25.7319H73.0625C72.819 26.1082 72.5672 26.4956 72.3071 26.894C72.0526 27.2925 71.7952 27.6992 71.5352 28.1143C71.2751 28.5293 71.0177 28.9471 70.7632 29.3677C70.5086 29.7827 70.2568 30.2005 70.0078 30.6211C69.7588 31.0361 69.5181 31.4484 69.2856 31.8579V31.9824ZM81.27 36V26.1304H81.1206L78.1406 28.2305V26.2217L81.27 24.022H83.4033V36H81.27Z" fill="white"/>
<path d="M91.5007 30.5545C91.2699 30.5504 91.0775 30.4996 90.9236 30.4021C90.7737 30.3005 90.6624 30.1724 90.5895 30.0179C90.5166 29.8594 90.4882 29.6928 90.5044 29.518C90.5206 29.3391 90.5814 29.1745 90.6867 29.0241C90.792 28.8696 90.9479 28.7456 91.1544 28.6521L100.874 24.1584C101.154 24.0324 101.411 23.9815 101.646 24.0059C101.881 24.0263 102.073 24.1096 102.223 24.2559C102.373 24.3982 102.462 24.5852 102.49 24.8169C102.523 25.0445 102.474 25.3006 102.344 25.5852L97.8794 35.3044C97.7822 35.5239 97.6546 35.6885 97.4967 35.7983C97.3387 35.9121 97.1707 35.9771 96.9925 35.9934C96.8143 36.0137 96.6462 35.9873 96.4882 35.9141C96.3303 35.8409 96.2027 35.7271 96.1055 35.5727C96.0083 35.4223 95.9597 35.2353 95.9597 35.0117L95.9476 30.6643C95.9476 30.5992 95.9152 30.5667 95.8504 30.5667L91.5007 30.5545Z" fill="white"/>
<path d="M312.667 32H313.833C314.478 32 315 32.5037 315 33.125V35.375C315 35.9963 314.478 36.5 313.833 36.5H312.667C312.022 36.5 311.5 35.9963 311.5 35.375V33.125C311.5 32.5037 312.022 32 312.667 32Z" fill="white"/>
<path d="M317.667 30H318.833C319.478 30 320 30.5037 320 31.125V35.375C320 35.9963 319.478 36.5 318.833 36.5H317.667C317.022 36.5 316.5 35.9963 316.5 35.375V31.125C316.5 30.5037 317.022 30 317.667 30Z" fill="white"/>
<path d="M322.667 27H323.833C324.478 27 325 27.5037 325 28.125V35.375C325 35.9963 324.478 36.5 323.833 36.5H322.667C322.022 36.5 321.5 35.9963 321.5 35.375V28.125C321.5 27.5037 322.022 27 322.667 27Z" fill="white"/>
<path d="M327.667 24H328.833C329.478 24 330 24.5037 330 25.125V35.375C330 35.9963 329.478 36.5 328.833 36.5H327.667C327.022 36.5 326.5 35.9963 326.5 35.375V25.125C326.5 24.5037 327.022 24 327.667 24Z" fill="white"/>
<path fill-rule="evenodd" clip-rule="evenodd" d="M349 26.596C351.467 26.5961 353.839 27.5667 355.627 29.3071C355.761 29.4415 355.977 29.4398 356.109 29.3033L357.396 27.9734C357.463 27.9042 357.501 27.8104 357.5 27.7129C357.499 27.6153 357.461 27.522 357.393 27.4536C352.701 22.8488 345.299 22.8488 340.607 27.4536C340.539 27.522 340.501 27.6152 340.5 27.7128C340.499 27.8103 340.537 27.9041 340.604 27.9734L341.891 29.3033C342.023 29.44 342.239 29.4417 342.373 29.3071C344.161 27.5666 346.534 26.596 349 26.596ZM349 30.9227C350.356 30.9226 351.663 31.4384 352.667 32.37C352.803 32.5022 353.017 32.4993 353.149 32.3635L354.435 31.0336C354.502 30.9639 354.54 30.8692 354.539 30.7709C354.538 30.6726 354.499 30.5787 354.43 30.5104C351.37 27.5963 346.633 27.5963 343.574 30.5104C343.505 30.5787 343.465 30.6726 343.465 30.771C343.464 30.8693 343.501 30.964 343.569 31.0336L344.854 32.3635C344.987 32.4993 345.201 32.5022 345.336 32.37C346.34 31.439 347.646 30.9232 349 30.9227ZM351.575 33.834C351.577 33.9326 351.539 34.0277 351.47 34.0968L349.247 36.3945C349.182 36.462 349.093 36.5 349 36.5C348.908 36.5 348.819 36.462 348.754 36.3945L346.53 34.0968C346.461 34.0276 346.424 33.9325 346.426 33.8339C346.428 33.7353 346.469 33.6419 346.541 33.5758C347.961 32.346 350.04 32.346 351.46 33.5758C351.532 33.642 351.573 33.7354 351.575 33.834Z" fill="white"/>
<g opacity="0.3">
<path d="M368.166 24.7777C367.5 25.7866 367.5 27.1911 367.5 30C367.5 32.8089 367.5 34.2134 368.166 35.2223C368.454 35.659 368.825 36.034 369.256 36.3259C370.253 37 371.64 37 374.415 37H385.283C388.058 37 389.445 37 390.442 36.3259C390.873 36.034 391.244 35.659 391.532 35.2223C392.198 34.2134 392.198 32.8089 392.198 30C392.198 27.1911 392.198 25.7866 391.532 24.7777C391.244 24.341 390.873 23.966 390.442 23.6741C389.445 23 388.058 23 385.283 23H374.415C371.64 23 370.253 23 369.256 23.6741C368.825 23.966 368.454 24.341 368.166 24.7777Z" fill="white"/>
<path d="M394.5 29.75C394.5 30.6231 393.982 31.4112 393.186 31.75V27.75C393.982 28.0888 394.5 28.8769 394.5 29.75Z" fill="white"/>
</g>
<path d="M367.5 30C367.5 27.1911 367.5 25.7866 368.174 24.7777C368.466 24.341 368.841 23.966 369.278 23.6741C370.287 23 371.691 23 374.5 23H377.379V37H374.5C371.691 37 370.287 37 369.278 36.3259C368.841 36.034 368.466 35.659 368.174 35.2223C367.5 34.2134 367.5 32.8089 367.5 30Z" fill="#F7CE45"/>
<path d="M377.21 34.1719C376.627 34.1719 376.115 34.0752 375.674 33.8818C375.237 33.6849 374.892 33.4128 374.638 33.0654C374.383 32.7145 374.237 32.3081 374.197 31.8462L374.192 31.7764H375.744L375.75 31.8354C375.775 32.036 375.848 32.215 375.97 32.3726C376.095 32.5265 376.263 32.6483 376.475 32.7378C376.686 32.8237 376.931 32.8667 377.21 32.8667C377.486 32.8667 377.726 32.8201 377.93 32.7271C378.138 32.6304 378.297 32.4979 378.408 32.3296C378.523 32.1613 378.58 31.9679 378.58 31.7495V31.7388C378.58 31.3664 378.448 31.0817 378.183 30.8848C377.921 30.6878 377.556 30.5894 377.087 30.5894H376.201V29.4346H377.065C377.338 29.4346 377.574 29.3898 377.774 29.3003C377.975 29.2108 378.131 29.0872 378.242 28.9297C378.353 28.7686 378.408 28.5841 378.408 28.3765V28.3657C378.408 28.1509 378.36 27.9665 378.263 27.8125C378.17 27.6549 378.032 27.535 377.85 27.4526C377.671 27.3667 377.454 27.3237 377.2 27.3237C376.945 27.3237 376.722 27.3667 376.528 27.4526C376.335 27.5386 376.181 27.6621 376.066 27.8232C375.952 27.9808 375.884 28.167 375.862 28.3818L375.857 28.4302H374.364L374.369 28.3657C374.409 27.9002 374.548 27.4974 374.788 27.1572C375.032 26.8135 375.357 26.5485 375.766 26.3623C376.177 26.1725 376.655 26.0776 377.2 26.0776C377.755 26.0776 378.238 26.1654 378.65 26.3408C379.062 26.5127 379.379 26.7544 379.601 27.0659C379.826 27.3739 379.939 27.7355 379.939 28.1509V28.1616C379.939 28.4839 379.867 28.7668 379.724 29.0103C379.581 29.2537 379.388 29.4543 379.144 29.6118C378.901 29.7694 378.627 29.8804 378.322 29.9448V29.9771C378.899 30.0308 379.361 30.217 379.708 30.5356C380.055 30.8543 380.229 31.2769 380.229 31.8032V31.814C380.229 32.283 380.102 32.6948 379.848 33.0493C379.597 33.4038 379.246 33.6795 378.795 33.8765C378.344 34.0734 377.816 34.1719 377.21 34.1719ZM381.174 34V32.9097L383.671 30.4443C384.037 30.0934 384.319 29.8052 384.52 29.5796C384.721 29.3504 384.86 29.1517 384.939 28.9834C385.018 28.8115 385.057 28.6343 385.057 28.4517V28.4355C385.057 28.2135 385.009 28.0184 384.912 27.8501C384.819 27.6818 384.683 27.5511 384.504 27.458C384.325 27.3613 384.112 27.313 383.865 27.313C383.614 27.313 383.392 27.3667 383.199 27.4741C383.005 27.578 382.855 27.723 382.748 27.9092C382.64 28.0918 382.586 28.3066 382.586 28.5537V28.5806H381.088L381.083 28.5537C381.083 28.0596 381.202 27.6245 381.442 27.2485C381.686 26.8726 382.021 26.5789 382.447 26.3677C382.876 26.1564 383.374 26.0508 383.94 26.0508C384.473 26.0508 384.943 26.1457 385.347 26.3354C385.755 26.5252 386.074 26.7884 386.303 27.125C386.536 27.4616 386.652 27.8537 386.652 28.3013V28.3174C386.652 28.611 386.595 28.8993 386.48 29.1821C386.366 29.4614 386.173 29.764 385.9 30.0898C385.628 30.4157 385.256 30.797 384.783 31.2339L382.914 32.9795L383.349 32.2705V32.9795L382.914 32.6948H386.765V34H381.174Z" fill="black"/>
<rect x="145" y="919" width="140" height="5" rx="2.5" fill="white"/>
<path d="M146.26 493.316L148.504 495.999H112.061L109.744 493.276H146.226L146.26 493.316ZM125.254 436.001C129.579 435.975 138.057 437.996 142.321 445.821C144.123 449.129 144.255 452.942 144.255 456.282V487.679H144.247V489.534H106.666L106.632 489.494L104.356 486.811H141.323V456.282C141.323 452.916 141.152 449.803 139.745 447.22C136.19 440.695 128.986 438.902 125.264 438.927H125.254C117.704 438.927 113.06 442.959 110.523 446.882C108.727 449.66 108.419 453.161 108.419 456.914V480.346H135.483L135.517 480.387L137.749 483.068H101.252L101.219 483.027L99 480.346H105.487V456.914C105.487 453.128 105.76 448.85 108.061 445.294L108.343 444.869C111.338 440.468 116.74 436.004 125.245 436.001V436C125.247 436 125.248 436.001 125.25 436.001C125.251 436.001 125.253 436 125.254 436V436.001Z" fill="#C2A563"/>
<path d="M184.882 472.47C184.882 473.977 184.488 475.284 183.719 476.357C182.98 477.395 181.976 478.239 180.743 478.878C179.551 479.493 178.195 479.939 176.698 480.203C175.236 480.461 173.71 480.59 172.166 480.59C170.622 480.59 169.002 480.472 167.487 480.244C165.967 480.015 164.552 479.687 163.29 479.27L162.685 479.071V470.67L164.335 473.572C164.705 474.223 165.215 474.809 165.861 475.325C166.542 475.864 167.305 476.333 168.139 476.714C168.978 477.096 169.882 477.395 170.828 477.588C172.689 477.981 174.538 477.992 176.146 477.594C176.904 477.406 177.573 477.113 178.142 476.714C178.7 476.328 179.129 475.853 179.452 475.266C179.763 474.704 179.921 474 179.921 473.179C179.921 472.3 179.61 471.585 178.976 470.987C178.23 470.289 177.274 469.65 176.129 469.093C174.937 468.513 173.628 467.962 172.237 467.464C170.781 466.942 169.407 466.35 168.151 465.711C166.842 465.042 165.732 464.239 164.851 463.319C163.877 462.305 163.384 461.05 163.384 459.596C163.384 458.142 163.736 456.806 164.429 455.739C165.104 454.701 166.008 453.845 167.112 453.206C168.18 452.585 169.43 452.133 170.828 451.864C173.552 451.342 176.569 451.36 179.457 451.823C180.907 452.051 182.287 452.38 183.555 452.79L184.166 452.989V461.226L182.528 458.506C182.128 457.838 181.606 457.222 180.972 456.671C180.326 456.108 179.604 455.616 178.817 455.217C178.037 454.813 177.191 454.502 176.311 454.297C174.614 453.898 172.965 453.875 171.567 454.267C170.939 454.443 170.376 454.736 169.894 455.129C169.419 455.522 169.043 456.014 168.761 456.624C168.479 457.228 168.339 457.99 168.339 458.881C168.339 459.596 168.638 460.2 169.254 460.728C170.006 461.373 170.969 461.971 172.113 462.51C173.311 463.073 174.632 463.624 176.035 464.151C177.497 464.702 178.876 465.33 180.132 466.021C181.442 466.743 182.545 467.598 183.426 468.566C184.389 469.627 184.876 470.94 184.876 472.458L184.882 472.47ZM214.945 479.986H209.468L205.599 471.432H195.014C194.463 472.687 194.151 473.912 194.087 475.067C194.022 476.199 194.328 477.418 195.003 478.696L195.684 479.986H188.633L198.901 456.636L196.805 452.034H202.041L214.951 479.98L214.945 479.986ZM204.466 468.964L200.274 459.69L196.142 468.964H204.466ZM243.946 481.381V452.04H237.4L238.774 453.517C239.372 454.162 239.842 454.795 240.165 455.399C240.499 456.02 240.758 456.642 240.94 457.245C241.122 457.843 241.233 458.459 241.28 459.063C241.327 459.714 241.351 460.388 241.351 461.062V471.11L223.833 452.04H217.193L220.005 455.1V479.986H226.451L225.195 478.532C224.608 477.852 224.138 477.201 223.792 476.591C223.451 475.988 223.187 475.378 223.005 474.78C222.823 474.182 222.712 473.572 222.665 472.963C222.618 472.318 222.594 471.644 222.594 470.963V457.967L243.934 481.381H243.946ZM268.414 476.316C267.792 476.662 267.175 476.926 266.577 477.107C265.978 477.289 265.367 477.4 264.757 477.447C264.111 477.494 263.436 477.518 262.755 477.518H256.462L273.257 452.04H251.994V458.412L253.462 457.099C254.137 456.495 254.783 456.026 255.381 455.698C255.986 455.369 256.602 455.106 257.207 454.924C257.806 454.742 258.411 454.631 259.009 454.584C259.649 454.537 260.318 454.514 260.994 454.514H265.749L248.953 479.992H271.795V473.625L270.328 474.932C269.676 475.513 269.036 475.982 268.42 476.322L268.414 476.316ZM298.912 474.926C298.26 475.507 297.62 475.976 297.004 476.316C296.381 476.662 295.771 476.926 295.184 477.107C294.597 477.289 293.998 477.4 293.387 477.447C292.742 477.494 292.066 477.518 291.385 477.518H283.325V467.534H286.689C287.076 467.534 287.523 467.546 288.016 467.569C288.491 467.593 289.014 467.651 289.566 467.745C290.106 467.839 290.693 467.991 291.309 468.196C291.914 468.402 292.554 468.695 293.205 469.064L294.52 469.814V462.768L293.2 463.518C292.554 463.888 291.914 464.181 291.303 464.386C290.681 464.597 290.1 464.749 289.56 464.837C289.008 464.931 288.485 464.99 288.01 465.013C287.511 465.037 287.071 465.048 286.683 465.048H283.319V454.502H290.892C291.567 454.502 292.237 454.525 292.894 454.572C293.505 454.619 294.115 454.73 294.714 454.912C295.319 455.094 295.941 455.358 296.563 455.692C297.168 456.02 297.802 456.483 298.448 457.081L299.927 458.453V452.034H278.476V479.98H300.373V473.613L298.906 474.921L298.912 474.926ZM331 481.381V452.04H324.454L325.828 453.517C326.427 454.162 326.897 454.795 327.219 455.399C327.554 456.02 327.812 456.642 328 457.245C328.182 457.843 328.294 458.459 328.341 459.063C328.388 459.714 328.411 460.388 328.411 461.062V471.11L310.893 452.04H304.254L307.066 455.1V479.986H313.512L312.255 478.532C311.668 477.852 311.199 477.201 310.852 476.591C310.512 475.993 310.248 475.384 310.066 474.78C309.884 474.182 309.772 473.572 309.725 472.963C309.678 472.318 309.655 471.644 309.655 470.963V457.967L330.994 481.381H331Z" fill="white"/>
</g>
<defs>
<linearGradient id="paint0_linear_1029_325" x1="0" y1="0" x2="430" y2="932" gradientUnits="userSpaceOnUse">
<stop stop-color="#1D3724"/>
<stop offset="1" stop-color="#0E552B"/>
</linearGradient>
<clipPath id="clip0_1029_325">
<rect width="430" height="932" rx="40" fill="white"/>
</clipPath>
</defs>
</svg>
